<?xml version="1.0" encoding="utf-8"?>
<svg viewBox="108.682 128.716 293.832 223.404" xmlns="http://www.w3.org/2000/svg">
  <path d="M 111.44500036621093 178.53700256347656 L 111.44500036621093 128.44300256347657 L 94.41700036621094 128.44300256347657 L 94.41700036621094 114.18700256347655 L 145.50100036621095 114.18700256347655 L 145.50100036621095 128.44300256347657 L 128.47300036621095 128.44300256347657 L 128.47300036621095 178.53700256347656 Z M 153.61249865722655 178.53700256347656 L 153.61249865722655 129.03700256347656 L 170.64049865722657 129.03700256347656 L 170.64049865722657 178.53700256347656 Z M 162.12649865722656 122.89900256347656 Q 157.96849865722658 122.89900256347656 155.39449865722656 120.57250256347656 Q 152.82049865722655 118.24600256347657 152.82049865722655 114.38500256347656 Q 152.82049865722655 110.52400256347656 155.39449865722656 108.19750256347656 Q 157.96849865722658 105.87100256347657 162.12649865722656 105.87100256347657 Q 166.28449865722655 105.87100256347657 168.85849865722656 108.19750256347656 Q 171.43249865722657 110.52400256347656 171.43249865722657 114.38500256347656 Q 171.43249865722657 118.24600256347657 168.85849865722656 120.57250256347656 Q 166.28449865722655 122.89900256347656 162.12649865722656 122.89900256347656 Z M 204.49502832031249 179.72500256347655 Q 197.4660283203125 179.72500256347655 191.8230283203125 176.65600256347656 Q 186.1800283203125 173.58700256347657 182.8635283203125 167.79550256347656 Q 179.5470283203125 162.00400256347655 179.5470283203125 153.78700256347656 Q 179.5470283203125 145.57000256347658 183.2595283203125 139.77850256347656 Q 186.9720283203125 133.98700256347655 193.0110283203125 130.91800256347656 Q 199.0500283203125 127.84900256347656 206.0790283203125 127.84900256347656 Q 210.5340283203125 127.84900256347656 214.14752832031252 129.23500256347657 Q 217.7610283203125 130.62100256347657 220.5330283203125 132.99700256347657 L 212.6130283203125 143.88700256347656 Q 211.0290283203125 142.50100256347656 209.7420283203125 142.00600256347656 Q 208.4550283203125 141.51100256347655 207.0690283203125 141.51100256347655 Q 202.3170283203125 141.51100256347655 199.6440283203125 144.82750256347657 Q 196.9710283203125 148.14400256347656 196.9710283203125 153.78700256347656 Q 196.9710283203125 159.43000256347656 199.7430283203125 162.74650256347655 Q 202.5150283203125 166.06300256347657 206.4750283203125 166.06300256347657 Q 208.5540283203125 166.06300256347657 210.5835283203125 165.12250256347656 Q 212.6130283203125 164.18200256347657 214.39502832031252 162.89500256347657 L 220.9290283203125 173.98300256347656 Q 217.2660283203125 177.25000256347656 212.81102832031252 178.48750256347657 Q 208.3560283203125 179.72500256347655 204.49502832031249 179.72500256347655 Z M 228.84875048828124 178.53700256347656 L 228.84875048828124 109.63300256347657 L 245.48075048828125 109.63300256347657 L 245.48075048828125 146.26300256347656 L 245.87675048828126 146.26300256347656 L 259.53875048828127 129.03700256347656 L 277.95275048828125 129.03700256347656 L 260.33075048828124 149.62900256347655 L 278.94275048828126 178.53700256347656 L 260.5287504882813 178.53700256347656 L 250.62875048828124 160.91500256347655 L 245.48075048828125 166.65700256347657 L 245.48075048828125 178.53700256347656 Z M 304.8805627441406 179.72500256347655 Q 297.65356274414063 179.72500256347655 291.86206274414064 176.65600256347656 Q 286.0705627441406 173.58700256347657 282.7045627441406 167.79550256347656 Q 279.33856274414063 162.00400256347655 279.33856274414063 153.78700256347656 Q 279.33856274414063 145.76800256347656 282.75406274414064 139.97650256347657 Q 286.16956274414065 134.18500256347656 291.61456274414064 131.01700256347655 Q 297.05956274414064 127.84900256347656 303.0985627441406 127.84900256347656 Q 310.42456274414064 127.84900256347656 315.2260627441406 131.06650256347655 Q 320.0275627441406 134.28400256347658 322.3540627441406 139.72900256347657 Q 324.6805627441406 145.17400256347656 324.6805627441406 151.80700256347657 Q 324.6805627441406 153.98500256347657 324.4330627441406 156.01450256347655 Q 324.1855627441406 158.04400256347657 323.98756274414063 158.93500256347656 L 295.7725627441406 158.93500256347656 Q 296.96056274414065 163.39000256347657 300.0295627441406 165.12250256347656 Q 303.0985627441406 166.85500256347657 307.25656274414064 166.85500256347657 Q 312.00856274414065 166.85500256347657 317.35456274414065 163.88500256347658 L 322.89856274414063 173.98300256347656 Q 318.93856274414065 176.75500256347655 313.9885627441406 178.24000256347657 Q 309.0385627441406 179.72500256347655 304.8805627441406 179.72500256347655 Z M 295.5745627441406 147.84700256347656 L 310.2265627441406 147.84700256347656 Q 310.2265627441406 144.97600256347656 308.7910627441406 142.84750256347655 Q 307.3555627441406 140.71900256347655 303.49456274414064 140.71900256347655 Q 300.72256274414065 140.71900256347655 298.54456274414065 142.40200256347657 Q 296.36656274414065 144.08500256347656 295.5745627441406 147.84700256347656 Z M 353.3937819824219 179.72500256347655 Q 343.7907819824219 179.72500256347655 339.48428198242186 174.13150256347657 Q 335.1777819824219 168.53800256347657 335.1777819824219 159.52900256347655 L 335.1777819824219 142.30300256347655 L 328.6437819824219 142.30300256347655 L 328.6437819824219 129.63100256347656 L 336.1677819824219 129.03700256347656 L 338.14778198242186 116.16700256347656 L 352.20578198242185 116.16700256347656 L 352.20578198242185 129.03700256347656 L 363.49178198242186 129.03700256347656 L 363.49178198242186 142.30300256347655 L 352.20578198242185 142.30300256347655 L 352.20578198242185 159.23200256347656 Q 352.20578198242185 163.29100256347655 353.9877819824219 164.87500256347656 Q 355.7697819824219 166.45900256347656 358.14578198242185 166.45900256347656 Q 359.3337819824219 166.45900256347656 360.47228198242186 166.21150256347656 Q 361.6107819824219 165.96400256347655 362.5017819824219 165.66700256347656 L 365.07578198242186 177.94300256347657 Q 363.1947819824219 178.53700256347656 360.3237819824219 179.13100256347656 Q 357.45278198242187 179.72500256347655 353.3937819824219 179.72500256347655 Z" transform="matrix(1, 0, 0, 1, 16.641433715820312, 47.555335998535156)" style="fill: rgb(255, 255, 255); white-space: pre;"/>
  <path transform="matrix(1, 0, 0, 1, 16.641433715820312, 47.555335998535156)" style="fill: rgb(255, 255, 255); white-space: pre;"/>
  <path d="M 126.29499273681641 278.7250178222656 Q 117.3849927368164 278.7250178222656 110.6529927368164 274.7155178222656 Q 103.9209927368164 270.7060178222656 100.1589927368164 263.1820178222656 Q 96.3969927368164 255.65801782226563 96.3969927368164 245.06501782226562 Q 96.3969927368164 234.47201782226563 100.1589927368164 227.09651782226564 Q 103.9209927368164 219.72101782226562 110.6529927368164 215.86001782226563 Q 117.3849927368164 211.9990178222656 126.29499273681641 211.9990178222656 Q 135.2049927368164 211.9990178222656 141.93699273681642 215.86001782226563 Q 148.6689927368164 219.72101782226562 152.4309927368164 227.09651782226564 Q 156.1929927368164 234.47201782226563 156.1929927368164 245.06501782226562 Q 156.1929927368164 255.65801782226563 152.4309927368164 263.1820178222656 Q 148.6689927368164 270.7060178222656 141.93699273681642 274.7155178222656 Q 135.2049927368164 278.7250178222656 126.29499273681641 278.7250178222656 Z M 126.29499273681641 264.0730178222656 Q 132.1359927368164 264.0730178222656 135.4524927368164 258.9250178222656 Q 138.76899273681641 253.77701782226563 138.76899273681641 245.06501782226562 Q 138.76899273681641 236.2540178222656 135.4524927368164 231.45251782226563 Q 132.1359927368164 226.65101782226563 126.29499273681641 226.65101782226563 Q 120.5529927368164 226.65101782226563 117.1869927368164 231.45251782226563 Q 113.82099273681641 236.2540178222656 113.82099273681641 245.06501782226562 Q 113.82099273681641 253.77701782226563 117.1869927368164 258.9250178222656 Q 120.5529927368164 264.0730178222656 126.29499273681641 264.0730178222656 Z M 166.28469409179687 277.5370178222656 L 166.28469409179687 228.03701782226562 L 180.14469409179688 228.03701782226562 L 181.33269409179687 233.97701782226562 L 181.72869409179688 233.97701782226562 Q 184.69869409179688 231.1060178222656 188.51019409179688 228.9775178222656 Q 192.32169409179687 226.84901782226564 197.37069409179688 226.84901782226564 Q 205.5876940917969 226.84901782226564 209.20119409179688 232.34351782226562 Q 212.81469409179687 237.8380178222656 212.81469409179687 247.04501782226563 L 212.81469409179687 277.5370178222656 L 195.78669409179687 277.5370178222656 L 195.78669409179687 249.22301782226563 Q 195.78669409179687 244.47101782226562 194.5986940917969 242.88701782226562 Q 193.41069409179687 241.30301782226562 190.8366940917969 241.30301782226562 Q 188.46069409179688 241.30301782226562 186.87669409179688 242.29301782226563 Q 185.29269409179688 243.2830178222656 183.31269409179689 245.06501782226562 L 183.31269409179689 277.5370178222656 Z M 239.14931591796875 278.7250178222656 Q 233.40731591796876 278.7250178222656 230.09081591796874 276.3985178222656 Q 226.77431591796875 274.07201782226565 225.33881591796876 269.8645178222656 Q 223.90331591796874 265.65701782226563 223.90331591796874 260.11301782226565 L 223.90331591796874 208.63301782226563 L 240.93131591796876 208.63301782226563 L 240.93131591796876 260.70701782226564 Q 240.93131591796876 263.1820178222656 241.87181591796875 264.12251782226565 Q 242.81231591796876 265.06301782226564 243.70331591796875 265.06301782226564 Q 244.19831591796876 265.06301782226564 244.54481591796875 265.0135178222656 Q 244.89131591796874 264.96401782226565 245.48531591796876 264.8650178222656 L 247.46531591796875 277.33901782226565 Q 246.17831591796875 277.93301782226564 244.09931591796874 278.3290178222656 Q 242.02031591796876 278.7250178222656 239.14931591796875 278.7250178222656 Z M 253.40404833984374 277.5370178222656 L 253.40404833984374 228.03701782226562 L 270.43204833984373 228.03701782226562 L 270.43204833984373 277.5370178222656 Z M 261.9180483398437 221.89901782226562 Q 257.76004833984376 221.89901782226562 255.18604833984375 219.57251782226564 Q 252.61204833984374 217.24601782226563 252.61204833984374 213.38501782226564 Q 252.61204833984374 209.52401782226562 255.18604833984375 207.19751782226564 Q 257.76004833984376 204.87101782226563 261.9180483398437 204.87101782226563 Q 266.07604833984374 204.87101782226563 268.65004833984375 207.19751782226564 Q 271.22404833984376 209.52401782226562 271.22404833984376 213.38501782226564 Q 271.22404833984376 217.24601782226563 268.65004833984375 219.57251782226564 Q 266.07604833984374 221.89901782226562 261.9180483398437 221.89901782226562 Z M 281.91256274414064 277.5370178222656 L 281.91256274414064 228.03701782226562 L 295.7725627441406 228.03701782226562 L 296.96056274414065 233.97701782226562 L 297.3565627441406 233.97701782226562 Q 300.32656274414063 231.1060178222656 304.1380627441406 228.9775178222656 Q 307.9495627441406 226.84901782226564 312.9985627441406 226.84901782226564 Q 321.21556274414064 226.84901782226564 324.82906274414063 232.34351782226562 Q 328.4425627441406 237.8380178222656 328.4425627441406 247.04501782226563 L 328.4425627441406 277.5370178222656 L 311.41456274414065 277.5370178222656 L 311.41456274414065 249.22301782226563 Q 311.41456274414065 244.47101782226562 310.2265627441406 242.88701782226562 Q 309.0385627441406 241.30301782226562 306.4645627441406 241.30301782226562 Q 304.08856274414063 241.30301782226562 302.5045627441406 242.29301782226563 Q 300.9205627441406 243.2830178222656 298.9405627441406 245.06501782226562 L 298.9405627441406 277.5370178222656 Z M 362.4992150878906 278.7250178222656 Q 355.27221508789063 278.7250178222656 349.48071508789064 275.65601782226565 Q 343.6892150878906 272.58701782226564 340.3232150878906 266.79551782226565 Q 336.95721508789063 261.0040178222656 336.95721508789063 252.78701782226562 Q 336.95721508789063 244.76801782226562 340.37271508789064 238.97651782226563 Q 343.78821508789065 233.18501782226562 349.23321508789064 230.01701782226561 Q 354.67821508789064 226.84901782226564 360.7172150878906 226.84901782226564 Q 368.04321508789064 226.84901782226564 372.8447150878906 230.0665178222656 Q 377.6462150878906 233.28401782226564 379.9727150878906 238.72901782226563 Q 382.2992150878906 244.17401782226563 382.2992150878906 250.80701782226564 Q 382.2992150878906 252.98501782226563 382.0517150878906 255.01451782226562 Q 381.8042150878906 257.04401782226563 381.60621508789063 257.93501782226565 L 353.3912150878906 257.93501782226565 Q 354.57921508789065 262.39001782226563 357.6482150878906 264.12251782226565 Q 360.7172150878906 265.8550178222656 364.87521508789064 265.8550178222656 Q 369.62721508789065 265.8550178222656 374.97321508789065 262.88501782226564 L 380.51721508789063 272.98301782226565 Q 376.55721508789065 275.75501782226564 371.6072150878906 277.2400178222656 Q 366.6572150878906 278.7250178222656 362.4992150878906 278.7250178222656 Z M 353.1932150878906 246.84701782226563 L 367.8452150878906 246.84701782226563 Q 367.8452150878906 243.97601782226562 366.4097150878906 241.84751782226562 Q 364.9742150878906 239.7190178222656 361.11321508789064 239.7190178222656 Q 358.34121508789065 239.7190178222656 356.16321508789065 241.40201782226563 Q 353.98521508789065 243.08501782226563 353.1932150878906 246.84701782226563 Z" transform="matrix(1, 0, 0, 1, 16.641433715820312, 47.555335998535156)" style="fill: rgb(255, 255, 255); white-space: pre;"/>
</svg>